#Comment line ignore any data following # character 
#Hierarchical Translation and Rotation (.htr) file 
[Header]	
#Header keywords are followed by a single value 
FileType HTR		#Single word string
DataType HTRS		#Translation followed by rotation and scale data
FileVersion 1		#integer
NumSegments 84		#integer
NumFrames 2		#integer
DataFrameRate 30		#integer, data frame rate in this file
EulerRotationOrder ZYX
CalibrationUnits mm
RotationUnits Degrees
GlobalAxisofGravity Y
BoneLengthAxis Y
ScaleFactor 1.00
[SegmentNames&Hierarchy]
#CHILD	PARENT
MASTER GLOBAL
root MASTER
chest root
L_mid_tent01 root
R_mid_tent01 root
spine01 root
Bip01_Neck chest
L_humerus chest
R_humerus chest
weapon_bone chest
Bip01_Head Bip01_Neck
eye_left_bone Bip01_Head
eye_right_bone Bip01_Head
L_forearm L_humerus
L_front_hand L_forearm
L_weapon_bone L_forearm
L_front_hand01_01 L_front_hand
L_front_hand02_01 L_front_hand
L_front_hand03_01 L_front_hand
L_front_hand01_02 L_front_hand01_01
L_front_hand02_02 L_front_hand02_01
L_front_hand03_02 L_front_hand03_01
R_forearm R_humerus
R_front_hand R_forearm
R_weapon_bone R_forearm
R_front_hand01_01 R_front_hand
R_front_hand02_01 R_front_hand
R_front_hand03_01 R_front_hand
R_front_hand01_02 R_front_hand01_01
R_front_hand02_02 R_front_hand02_01
R_front_hand03_02 R_front_hand03_01
null_rope01_connect L_mid_tent01
Rope1_Seg01 null_rope01_connect
Rope1_Seg02 Rope1_Seg01
Rope1_Seg03 Rope1_Seg02
Rope1_Seg04 Rope1_Seg03
Rope1_Seg05 Rope1_Seg04
Rope1_Seg06 Rope1_Seg05
Rope1_Seg07 Rope1_Seg06
Rope1_Seg09 Rope1_Seg07
L_mid_hand01 Rope1_Seg09
L_mid_hand02 Rope1_Seg09
L_mid_hand03 Rope1_Seg09
null_rope02_connect R_mid_tent01
Rope2_Seg01 null_rope02_connect
Rope2_Seg02 Rope2_Seg01
Rope2_Seg03 Rope2_Seg02
Rope2_Seg04 Rope2_Seg03
Rope2_Seg05 Rope2_Seg04
Rope2_Seg06 Rope2_Seg05
Rope2_Seg07 Rope2_Seg06
Rope2_Seg09 Rope2_Seg07
R_mid_hand01 Rope2_Seg09
R_mid_hand02 Rope2_Seg09
R_mid_hand03 Rope2_Seg09
spine02 spine01
spine03 spine02
pelvis spine03
null_rope03_connect pelvis
null_rope04_connect pelvis
Rope3_Seg01 null_rope03_connect
Rope3_Seg02 Rope3_Seg01
Rope3_Seg03 Rope3_Seg02
Rope3_Seg04 Rope3_Seg03
Rope3_Seg05 Rope3_Seg04
Rope3_Seg06 Rope3_Seg05
Rope3_Seg07 Rope3_Seg06
Rope3_Seg08 Rope3_Seg07
Rope3_Seg09 Rope3_Seg08
R_rear_hand01 Rope3_Seg09
R_rear_hand02 Rope3_Seg09
R_rear_hand03 Rope3_Seg09
Rope4_Seg01 null_rope04_connect
Rope4_Seg02 Rope4_Seg01
Rope4_Seg03 Rope4_Seg02
Rope4_Seg04 Rope4_Seg03
Rope4_Seg05 Rope4_Seg04
Rope4_Seg06 Rope4_Seg05
Rope4_Seg07 Rope4_Seg06
Rope4_Seg08 Rope4_Seg07
Rope4_Seg09 Rope4_Seg08
L_rear_hand01 Rope4_Seg09
L_rear_hand02 Rope4_Seg09
L_rear_hand03 Rope4_Seg09
[BasePosition]
#SegmentName Tx, Ty, Tz, Rx, Ry, Rz, BoneLength
MASTER 0.000000 0.000000 0.000000 -90.000000 0.000000 0.000000 10.000000 
root 0.000000 0.000000 0.000000 0.000000 0.000000 0.000000 10.000000 
chest 0.000000 0.000000 0.000000 0.000000 0.000000 0.000000 10.000000 
L_mid_tent01 0.000000 0.000000 0.000000 0.000000 0.000000 0.000000 10.000000 
R_mid_tent01 0.000000 0.000000 0.000000 0.000000 0.000000 0.000000 10.000000 
spine01 0.000000 0.000000 0.000000 0.000000 0.000000 0.000000 10.000000 
Bip01_Neck 0.000000 0.000000 0.000000 0.000000 0.000000 0.000000 10.000000 
L_humerus 0.000000 0.000000 0.000000 0.000000 0.000000 0.000000 10.000000 
R_humerus 0.000000 0.000000 0.000000 0.000000 0.000000 0.000000 10.000000 
weapon_bone 0.000000 0.000000 0.000000 0.000000 0.000000 0.000000 10.000000 
Bip01_Head 0.000000 0.000000 0.000000 0.000000 0.000000 0.000000 10.000000 
eye_left_bone 0.000000 0.000000 0.000000 0.000000 0.000000 0.000000 10.000000 
eye_right_bone 0.000000 0.000000 0.000000 0.000000 0.000000 0.000000 10.000000 
L_forearm 0.000000 0.000000 0.000000 0.000000 0.000000 0.000000 10.000000 
L_front_hand 0.000000 0.000000 0.000000 0.000000 0.000000 0.000000 10.000000 
L_weapon_bone 0.000000 0.000000 0.000000 0.000000 0.000000 0.000000 10.000000 
L_front_hand01_01 0.000000 0.000000 0.000000 0.000000 0.000000 0.000000 10.000000 
L_front_hand02_01 0.000000 0.000000 0.000000 0.000000 0.000000 0.000000 10.000000 
L_front_hand03_01 0.000000 0.000000 0.000000 0.000000 0.000000 0.000000 10.000000 
L_front_hand01_02 0.000000 0.000000 0.000000 0.000000 0.000000 0.000000 10.000000 
L_front_hand02_02 0.000000 0.000000 0.000000 0.000000 0.000000 0.000000 10.000000 
L_front_hand03_02 0.000000 0.000000 0.000000 0.000000 0.000000 0.000000 10.000000 
R_forearm 0.000000 0.000000 0.000000 0.000000 0.000000 0.000000 10.000000 
R_front_hand 0.000000 0.000000 0.000000 0.000000 0.000000 0.000000 10.000000 
R_weapon_bone 0.000000 0.000000 0.000000 0.000000 0.000000 0.000000 10.000000 
R_front_hand01_01 0.000000 0.000000 0.000000 0.000000 0.000000 0.000000 10.000000 
R_front_hand02_01 0.000000 0.000000 0.000000 0.000000 0.000000 0.000000 10.000000 
R_front_hand03_01 0.000000 0.000000 0.000000 0.000000 0.000000 0.000000 10.000000 
R_front_hand01_02 0.000000 0.000000 0.000000 0.000000 0.000000 0.000000 10.000000 
R_front_hand02_02 0.000000 0.000000 0.000000 0.000000 0.000000 0.000000 10.000000 
R_front_hand03_02 0.000000 0.000000 0.000000 0.000000 0.000000 0.000000 10.000000 
null_rope01_connect 0.000000 0.000000 0.000000 0.000000 0.000000 0.000000 10.000000 
Rope1_Seg01 0.000000 0.000000 0.000000 0.000000 0.000000 0.000000 10.000000 
Rope1_Seg02 0.000000 0.000000 0.000000 0.000000 0.000000 0.000000 10.000000 
Rope1_Seg03 0.000000 0.000000 0.000000 0.000000 0.000000 0.000000 10.000000 
Rope1_Seg04 0.000000 0.000000 0.000000 0.000000 0.000000 0.000000 10.000000 
Rope1_Seg05 0.000000 0.000000 0.000000 0.000000 0.000000 0.000000 10.000000 
Rope1_Seg06 0.000000 0.000000 0.000000 0.000000 0.000000 0.000000 10.000000 
Rope1_Seg07 0.000000 0.000000 0.000000 0.000000 0.000000 0.000000 10.000000 
Rope1_Seg09 0.000000 0.000000 0.000000 0.000000 0.000000 0.000000 10.000000 
L_mid_hand01 0.000000 0.000000 0.000000 0.000000 0.000000 0.000000 10.000000 
L_mid_hand02 0.000000 0.000000 0.000000 0.000000 0.000000 0.000000 10.000000 
L_mid_hand03 0.000000 0.000000 0.000000 0.000000 0.000000 0.000000 10.000000 
null_rope02_connect 0.000000 0.000000 0.000000 0.000000 0.000000 0.000000 10.000000 
Rope2_Seg01 0.000000 0.000000 0.000000 0.000000 0.000000 0.000000 10.000000 
Rope2_Seg02 0.000000 0.000000 0.000000 0.000000 0.000000 0.000000 10.000000 
Rope2_Seg03 0.000000 0.000000 0.000000 0.000000 0.000000 0.000000 10.000000 
Rope2_Seg04 0.000000 0.000000 0.000000 0.000000 0.000000 0.000000 10.000000 
Rope2_Seg05 0.000000 0.000000 0.000000 0.000000 0.000000 0.000000 10.000000 
Rope2_Seg06 0.000000 0.000000 0.000000 0.000000 0.000000 0.000000 10.000000 
Rope2_Seg07 0.000000 0.000000 0.000000 0.000000 0.000000 0.000000 10.000000 
Rope2_Seg09 0.000000 0.000000 0.000000 0.000000 0.000000 0.000000 10.000000 
R_mid_hand01 0.000000 0.000000 0.000000 0.000000 0.000000 0.000000 10.000000 
R_mid_hand02 0.000000 0.000000 0.000000 0.000000 0.000000 0.000000 10.000000 
R_mid_hand03 0.000000 0.000000 0.000000 0.000000 0.000000 0.000000 10.000000 
spine02 0.000000 0.000000 0.000000 0.000000 0.000000 0.000000 10.000000 
spine03 0.000000 0.000000 0.000000 0.000000 0.000000 0.000000 10.000000 
pelvis 0.000000 0.000000 0.000000 0.000000 0.000000 0.000000 10.000000 
null_rope03_connect 0.000000 0.000000 0.000000 0.000000 0.000000 0.000000 10.000000 
null_rope04_connect 0.000000 0.000000 0.000000 0.000000 0.000000 0.000000 10.000000 
Rope3_Seg01 0.000000 0.000000 0.000000 0.000000 0.000000 0.000000 10.000000 
Rope3_Seg02 0.000000 0.000000 0.000000 0.000000 0.000000 0.000000 10.000000 
Rope3_Seg03 0.000000 0.000000 0.000000 0.000000 0.000000 0.000000 10.000000 
Rope3_Seg04 0.000000 0.000000 0.000000 0.000000 0.000000 0.000000 10.000000 
Rope3_Seg05 0.000000 0.000000 0.000000 0.000000 0.000000 0.000000 10.000000 
Rope3_Seg06 0.000000 0.000000 0.000000 0.000000 0.000000 0.000000 10.000000 
Rope3_Seg07 0.000000 0.000000 0.000000 0.000000 0.000000 0.000000 10.000000 
Rope3_Seg08 0.000000 0.000000 0.000000 0.000000 0.000000 0.000000 10.000000 
Rope3_Seg09 0.000000 0.000000 0.000000 0.000000 0.000000 0.000000 10.000000 
R_rear_hand01 0.000000 0.000000 0.000000 0.000000 0.000000 0.000000 10.000000 
R_rear_hand02 0.000000 0.000000 0.000000 0.000000 0.000000 0.000000 10.000000 
R_rear_hand03 0.000000 0.000000 0.000000 0.000000 0.000000 0.000000 10.000000 
Rope4_Seg01 0.000000 0.000000 0.000000 0.000000 0.000000 0.000000 10.000000 
Rope4_Seg02 0.000000 0.000000 0.000000 0.000000 0.000000 0.000000 10.000000 
Rope4_Seg03 0.000000 0.000000 0.000000 0.000000 0.000000 0.000000 10.000000 
Rope4_Seg04 0.000000 0.000000 0.000000 0.000000 0.000000 0.000000 10.000000 
Rope4_Seg05 0.000000 0.000000 0.000000 0.000000 0.000000 0.000000 10.000000 
Rope4_Seg06 0.000000 0.000000 0.000000 0.000000 0.000000 0.000000 10.000000 
Rope4_Seg07 0.000000 0.000000 0.000000 0.000000 0.000000 0.000000 10.000000 
Rope4_Seg08 0.000000 0.000000 0.000000 0.000000 0.000000 0.000000 10.000000 
Rope4_Seg09 0.000000 0.000000 0.000000 0.000000 0.000000 0.000000 10.000000 
L_rear_hand01 0.000000 0.000000 0.000000 0.000000 0.000000 0.000000 10.000000 
L_rear_hand02 0.000000 0.000000 0.000000 0.000000 0.000000 0.000000 10.000000 
L_rear_hand03 0.000000 0.000000 0.000000 0.000000 0.000000 0.000000 10.000000 
#Beginning of Data. Separated by tabs
#Fr	Tx	Ty	Tz	Rx	Ry	Rz	SF
[MASTER]
27 0.000000 0.000000 0.000000 0.001660 0.001660 0.001660 0.000000
28 0.000000 0.000000 0.000000 0.001660 0.001660 0.001660 0.000000
[root]
27 -42.580284 -5.327246 1308.021240 -88.461761 -33.845337 -88.236076 1308.724854
28 -47.172867 -3.953763 1319.627197 -88.153740 -32.617054 -87.930603 1320.475952
[chest]
27 -84.512650 -34.090519 0.000000 1.333208 -1.318328 -139.356079 91.129311
28 -84.512650 -34.090519 0.000000 1.201334 -1.195278 -141.226547 91.129311
[L_mid_tent01]
27 27.349243 22.149046 -250.235855 -10.406402 6.527623 55.151192 252.698517
28 27.343733 22.152201 -250.200546 -9.474203 10.640512 57.558216 252.663223
[R_mid_tent01]
27 23.228794 24.509907 226.238495 -175.643631 -15.675144 57.606480 228.744751
28 23.228794 24.509907 226.238495 -177.303101 -20.224825 59.974171 228.744751
[spine01]
27 -0.361383 -0.195265 0.000000 0.001921 0.001349 19.869099 0.410763
28 -0.361383 -0.195265 0.000000 0.001919 0.001351 19.703384 0.410763
[Bip01_Neck]
27 165.484543 71.581718 0.000119 175.896118 1.177290 24.871183 180.302734
28 165.484543 71.581718 0.000119 175.896118 1.177290 24.871183 180.302734
[L_humerus]
27 -13.983130 -135.272980 -120.471481 -164.804657 2.040166 -85.700096 181.680161
28 -13.983130 -135.272980 -120.471481 -178.281921 1.886849 -87.432518 181.680161
[R_humerus]
27 -13.983309 -135.273102 125.287651 151.948914 -4.373806 -82.950813 184.909012
28 -13.983309 -135.273102 125.287651 167.061279 -3.051078 -85.845100 184.909012
[weapon_bone]
27 235.964890 -300.705902 0.000000 0.000000 -89.951546 -128.212341 382.234833
28 235.964890 -300.705902 0.000000 0.000000 -89.951546 -128.212341 382.234833
[Bip01_Head]
27 102.819771 23.735582 5.410264 3.150732 3.423701 -20.839092 105.662453
28 102.819771 23.735590 5.410259 3.150732 3.423701 -20.839092 105.662453
[eye_left_bone]
27 -24.626970 125.451866 -64.772606 0.000000 -90.000000 -99.840431 143.318359
28 -24.626970 125.451866 -64.772606 0.000000 -90.000000 -99.840431 143.318359
[eye_right_bone]
27 -24.626970 125.451866 64.327362 0.000000 -89.960434 80.159386 143.117676
28 -24.626970 125.451866 64.327362 0.000000 -89.960434 80.159386 143.117676
[L_forearm]
27 322.776093 0.000000 -0.000119 0.000140 0.002343 -83.150345 322.776093
28 322.776093 0.000000 -0.000119 0.000152 0.002342 -82.590820 322.776093
[L_front_hand]
27 241.149185 -0.042021 -3.300071 -177.810547 0.597539 -96.752136 241.171753
28 241.149185 -0.042021 -3.300071 -177.824341 0.637489 -97.773056 241.171753
[L_weapon_bone]
27 156.183838 0.000000 0.000000 0.002018 0.001198 28.606966 156.183838
28 156.183838 0.000000 0.000000 0.002004 0.001222 27.225895 156.183838
[L_front_hand01_01]
27 86.095154 20.947098 -0.655860 0.405585 -0.442306 -4.620490 88.609184
28 86.095154 20.947098 -0.655860 0.405585 -0.442306 -4.620490 88.609184
[L_front_hand02_01]
27 86.935165 -11.437475 24.513514 116.959450 3.630817 1.495453 91.046425
28 86.935165 -11.437475 24.513514 116.959450 3.630817 1.495453 91.046425
[L_front_hand03_01]
27 86.637497 -14.123976 -20.424902 -118.420097 -4.656303 -0.152527 90.126129
28 86.637497 -14.123976 -20.424902 -118.420097 -4.656303 -0.152527 90.126129
[L_front_hand01_02]
27 71.020905 -0.000179 0.000030 0.001534 0.001777 -8.378850 71.020905
28 71.020905 -0.000179 0.000030 0.001534 0.001777 -8.378851 71.020905
[L_front_hand02_02]
27 71.020927 -0.000119 0.000060 0.001534 0.001777 -8.378850 71.020927
28 71.020927 -0.000119 0.000060 0.001534 0.001777 -8.378851 71.020927
[L_front_hand03_02]
27 71.020905 -0.000060 0.000060 0.001534 0.001777 -8.378850 71.020905
28 71.020905 -0.000060 0.000060 0.001534 0.001777 -8.378851 71.020905
[R_forearm]
27 322.776428 -0.000060 0.000030 0.210752 -0.039747 -80.487083 322.776428
28 322.776428 -0.000060 0.000030 0.208513 -0.043121 -79.512444 322.776428
[R_front_hand]
27 238.847015 -0.006795 2.210259 -1.703041 -0.300958 -88.756149 238.857239
28 238.847015 -0.006795 2.210259 -1.699588 -0.318895 -89.363495 238.857239
[R_weapon_bone]
27 155.664093 0.002503 -0.000030 0.003238 0.001750 -110.392563 155.664078
28 155.664093 0.002503 -0.000030 0.003256 0.001718 -109.252251 155.664078
[R_front_hand01_01]
27 87.624611 14.231146 22.918642 -116.960213 3.496675 -1.324139 91.683487
28 87.624611 14.231146 22.918642 -116.960213 3.496675 -1.324139 91.683487
[R_front_hand02_01]
27 89.356956 14.367283 -19.491137 118.419647 -4.257089 0.609827 92.579636
28 89.356956 14.367283 -19.491137 118.419647 -4.257089 0.609827 92.579636
[R_front_hand03_01]
27 87.286232 -22.307278 -0.143439 -0.387970 -0.231462 4.232001 90.091743
28 87.286232 -22.307278 -0.143439 -0.387970 -0.231462 4.232001 90.091743
[R_front_hand01_02]
27 71.020905 0.000060 0.000119 0.001777 0.001534 8.377220 71.020905
28 71.020905 0.000060 0.000119 0.001777 0.001534 8.377220 71.020905
[R_front_hand02_02]
27 71.020844 -0.000030 -0.000119 0.001777 0.001534 8.377220 71.020836
28 71.020844 -0.000030 -0.000119 0.001777 0.001534 8.377220 71.020836
[R_front_hand03_02]
27 71.020905 0.000000 0.000030 0.001777 0.001534 8.377220 71.020905
28 71.020905 0.000000 0.000030 0.001777 0.001534 8.377220 71.020905
[null_rope01_connect]
27 328.732483 0.000000 -0.000238 178.043808 -79.216934 -109.712425 328.732483
28 328.732483 0.000000 -0.000238 -167.714722 -78.209862 -127.861443 328.732483
[Rope1_Seg01]
27 0.000000 0.000000 0.000000 123.083687 22.528860 178.171463 0.000000
28 0.000000 0.000000 0.000000 122.015213 22.735001 173.041489 0.000000
[Rope1_Seg02]
27 139.999863 -0.000179 0.000000 4.523062 -14.700347 2.232860 139.999863
28 139.999863 -0.000179 0.000000 3.947457 -17.520342 2.888565 139.999863
[Rope1_Seg03]
27 139.999924 0.000060 -0.000060 2.966443 -31.317307 2.952189 139.999924
28 139.999924 0.000060 -0.000060 0.767970 -32.992378 1.889215 139.999924
[Rope1_Seg04]
27 139.999924 -0.000060 -0.000119 -7.327173 -31.444286 6.860797 139.999924
28 139.999924 -0.000060 -0.000119 -7.774521 -26.113466 8.721086 139.999924
[Rope1_Seg05]
27 139.999832 0.000119 -0.000060 11.020532 -13.064367 33.046810 139.999832
28 139.999832 0.000119 -0.000060 13.707632 -11.483947 30.858915 139.999832
[Rope1_Seg06]
27 139.999954 0.000119 -0.000060 40.570576 -2.264733 21.733521 139.999954
28 139.999954 0.000119 -0.000060 29.654001 -2.182986 16.692047 139.999954
[Rope1_Seg07]
27 139.999985 0.000060 0.000000 27.343380 3.944921 7.545118 139.999985
28 139.999985 0.000060 0.000000 24.198433 2.199878 7.114374 139.999985
[Rope1_Seg09]
27 121.602913 0.000119 -0.000089 -89.793175 -1.359789 0.847147 121.602913
28 121.602913 0.000119 -0.000089 -89.793175 -1.359789 0.847147 121.602913
[L_mid_hand01]
27 103.859421 1.038730 8.195221 104.352043 0.341479 -0.444583 104.187431
28 103.859421 1.038730 8.195221 104.352036 0.341479 -0.444584 104.187431
[L_mid_hand02]
27 105.572853 -4.139662 -10.864139 -135.608444 3.905687 -3.381056 106.211075
28 105.572853 -4.139662 -10.864139 -135.608444 3.905687 -3.381056 106.211075
[L_mid_hand03]
27 104.641464 17.579376 -3.913581 -18.761518 -0.324361 2.942912 106.179977
28 104.641464 17.579376 -3.913581 -18.761518 -0.324361 2.942912 106.179977
[null_rope02_connect]
27 328.732849 0.000179 -0.000119 -127.532120 70.900902 -13.056021 328.732849
28 328.732849 0.000179 -0.000119 -124.020073 66.200043 -6.064220 328.732849
[Rope2_Seg01]
27 0.000076 0.000111 0.000153 -61.630558 21.992449 2.345610 0.000203
28 0.000076 0.000111 0.000153 -62.061287 23.472742 5.832385 0.000203
[Rope2_Seg02]
27 139.999741 -0.000060 -0.000119 -7.001620 -6.672138 11.331251 139.999756
28 139.999741 -0.000060 -0.000119 -6.904099 -8.019312 12.742780 139.999756
[Rope2_Seg03]
27 140.000107 0.000030 0.000000 -10.890723 -11.119537 25.998562 140.000107
28 140.000107 0.000030 0.000000 -9.736490 -10.840782 27.341093 140.000107
[Rope2_Seg04]
27 139.999802 0.000000 -0.000060 -4.576935 -20.937025 25.215883 139.999802
28 139.999802 0.000000 -0.000060 -3.307796 -24.093832 17.978939 139.999802
[Rope2_Seg05]
27 139.999985 -0.000060 0.000119 -15.744835 -43.707088 -19.223902 139.999985
28 139.999985 -0.000060 0.000119 -17.675232 -39.337627 -17.135708 139.999985
[Rope2_Seg06]
27 139.999893 -0.000030 -0.000119 -17.220415 -13.513776 -12.151026 139.999893
28 139.999893 -0.000030 -0.000119 -13.340181 -10.712132 -8.460382 139.999893
[Rope2_Seg07]
27 139.999893 0.000060 -0.000060 -7.402327 -3.799547 -5.293516 139.999893
28 139.999893 0.000060 -0.000060 -6.853900 -3.802473 -4.396920 139.999893
[Rope2_Seg09]
27 121.338966 0.000089 -0.000060 33.793236 -1.359788 -0.847141 121.338966
28 121.338966 0.000089 -0.000060 33.793236 -1.359788 -0.847141 121.338966
[R_mid_hand01]
27 104.680779 11.144459 -10.335981 -47.384258 2.963522 5.452604 105.778534
28 104.680779 11.144459 -10.335981 -47.384258 2.963522 5.452604 105.778534
[R_mid_hand02]
27 104.070427 2.443552 8.231699 75.626297 -2.250001 1.111093 104.424065
28 104.070427 2.443552 8.231699 75.626297 -2.250001 1.111093 104.424065
[R_mid_hand03]
27 106.028137 -11.221827 -5.996406 -164.381927 2.495983 -6.140520 106.788818
28 106.028137 -11.221827 -5.996406 -164.381912 2.495983 -6.140520 106.788818
[spine02]
27 129.756927 0.001550 0.000119 -1.296999 -3.877553 10.586596 129.756927
28 129.756927 0.001550 0.000119 -1.252791 -3.889366 9.929534 129.756927
[spine03]
27 78.925201 0.033047 -1.859568 -0.673625 4.608068 -17.396282 78.947113
28 78.915092 0.034810 -1.958237 -0.679023 4.577221 -17.521322 78.939392
[pelvis]
27 169.435242 0.051022 0.000000 -4.476449 -2.187148 8.232517 169.435257
28 169.435242 0.051022 0.000000 -4.299833 -2.124439 7.844033 169.435257
[null_rope03_connect]
27 -1.257226 -2.466202 137.391083 143.587845 -84.912926 -40.851772 137.418976
28 -1.257226 -2.466202 137.391083 135.950256 -84.997078 -33.081394 137.418976
[null_rope04_connect]
27 -1.259640 -2.480268 -137.844437 143.587845 -84.912926 -40.851772 137.872513
28 -1.259640 -2.480268 -137.844437 135.950256 -84.997078 -33.081394 137.872513
[Rope3_Seg01]
27 0.000057 0.000076 0.000000 -130.671326 1.333713 -80.098007 0.000095
28 0.000058 0.000073 0.000000 -130.652512 -5.720066 -78.276649 0.000093
[Rope3_Seg02]
27 139.999924 -0.000119 0.000060 -160.439713 -45.543995 -126.991547 139.999924
28 139.999924 -0.000119 0.000060 -142.234375 -33.669212 -110.436943 139.999924
[Rope3_Seg03]
27 139.999924 -0.000119 0.000119 19.900003 -7.831670 46.277199 139.999924
28 139.999924 -0.000119 0.000119 14.900232 18.041569 48.820999 139.999924
[Rope3_Seg04]
27 139.999924 0.000119 0.000000 1.242953 0.746837 8.564527 139.999924
28 139.999924 0.000119 0.000000 0.809546 2.588580 7.872151 139.999924
[Rope3_Seg05]
27 139.999924 -0.000238 0.000060 0.413931 0.430923 3.064998 139.999924
28 139.999924 -0.000238 0.000060 0.281168 1.122833 2.774413 139.999924
[Rope3_Seg06]
27 139.999893 -0.000119 -0.000060 0.550640 0.289172 1.931984 139.999893
28 139.999893 -0.000119 -0.000060 0.482252 0.711638 1.720919 139.999893
[Rope3_Seg07]
27 139.999771 0.000060 -0.000119 0.587880 0.217246 1.362886 139.999771
28 139.999771 0.000060 -0.000119 0.546146 0.510307 1.205937 139.999771
[Rope3_Seg08]
27 139.999985 -0.000060 0.000000 0.576484 0.145675 0.867905 139.999985
28 139.999985 -0.000060 0.000000 0.552844 0.329344 0.764900 139.999985
[Rope3_Seg09]
27 90.185997 -0.000179 -0.000060 89.793228 -1.359877 -0.847183 90.185997
28 90.185997 -0.000179 -0.000060 89.793228 -1.359877 -0.847183 90.185997
[R_rear_hand01]
27 103.366196 -6.073594 -10.757982 -156.049316 6.070419 -2.795869 104.101845
28 103.366196 -6.073594 -10.757982 -156.049316 6.070419 -2.795869 104.101845
[R_rear_hand02]
27 100.509819 12.039542 -7.992327 -38.708435 1.958051 5.461186 101.543350
28 100.509819 12.039542 -7.992327 -38.708435 1.958051 5.461186 101.543350
[R_rear_hand03]
27 101.539970 5.215704 5.435467 84.307625 -2.361032 4.099037 101.819031
28 101.539970 5.215704 5.435467 84.307625 -2.361032 4.099037 101.819031
[Rope4_Seg01]
27 0.000000 -0.000019 -0.000076 54.410042 26.651081 -87.205635 0.000079
28 0.000000 -0.000023 -0.000073 51.311604 19.411470 -89.156998 0.000077
[Rope4_Seg02]
27 139.999985 0.000060 0.000119 1.419421 -45.539272 -117.875847 139.999985
28 139.999985 0.000060 0.000119 -55.225388 -57.477272 -125.023964 139.999985
[Rope4_Seg03]
27 139.999924 0.000000 -0.000238 -82.088440 26.316393 -51.156246 139.999924
28 139.999924 0.000000 -0.000238 -17.919058 54.831184 7.231750 139.999924
[Rope4_Seg04]
27 139.999985 0.000000 0.000119 2.174002 7.710013 7.674598 139.999985
28 139.999985 0.000000 0.000119 3.598921 8.655591 10.639585 139.999985
[Rope4_Seg05]
27 139.999802 -0.000060 -0.000119 0.332936 2.761089 2.043079 139.999802
28 139.999802 -0.000060 -0.000119 0.555390 2.996282 2.816734 139.999802
[Rope4_Seg06]
27 139.999924 0.000000 0.000060 0.238696 1.740059 1.276510 139.999924
28 139.999924 0.000000 0.000060 0.330114 1.827024 1.673906 139.999924
[Rope4_Seg07]
27 139.999802 0.000000 0.000000 0.213934 1.221648 0.889280 139.999802
28 139.999802 0.000000 0.000000 0.266637 1.270129 1.147164 139.999802
[Rope4_Seg08]
27 139.999924 0.000000 0.000119 -1.409070 0.780155 0.560884 139.999924
28 139.999924 0.000000 0.000119 -1.378197 0.801701 0.719115 139.999924
[Rope4_Seg09]
27 90.185791 0.000060 0.000060 -135.617828 2.228885 0.850567 90.185791
28 90.185791 0.000060 0.000060 -135.617828 2.228885 0.850567 90.185791
[L_rear_hand01]
27 101.696655 -8.392275 -7.654577 -38.746338 0.246096 177.290207 102.329041
28 101.696655 -8.392275 -7.654577 -38.746338 0.246096 177.290207 102.329041
[L_rear_hand02]
27 102.726799 -1.568258 5.773216 84.315163 -1.142796 176.247437 102.900848
28 102.726799 -1.568258 5.773216 84.315163 -1.142796 176.247437 102.900848
[L_rear_hand03]
27 104.552910 9.721220 -10.420293 -155.747955 -4.630845 179.564758 105.519653
28 104.552910 9.721220 -10.420293 -155.747955 -4.630845 179.564758 105.519653
